<svg width="637" height="46" viewBox="0 0 637 46" fill="none" xmlns="http://www.w3.org/2000/svg">
<rect x="0.494141" y="0.932861" width="104.58" height="44" rx="3.5" fill="white" stroke="#CED2D2"/>
<path d="M50.9329 23.6218V31.5833H48.4072V11.9219H55.1059C55.9055 11.9052 56.7004 12.047 57.4449 12.3391C58.1894 12.6312 58.8687 13.0679 59.4435 13.624C60.0242 14.1462 60.4863 14.7868 60.7988 15.5025C61.1113 16.2182 61.2671 16.9925 61.2555 17.7734C61.2721 18.5584 61.1188 19.3378 60.806 20.0581C60.4933 20.7783 60.0285 21.4225 59.4435 21.9463C58.2722 23.0633 56.8263 23.6212 55.1059 23.6202H50.9329V23.6218ZM50.9329 14.3425V21.2059H55.1686C55.633 21.2196 56.0951 21.1363 56.5254 20.9613C56.9557 20.7862 57.3448 20.5233 57.6677 20.1893C57.9889 19.877 58.2442 19.5035 58.4186 19.0908C58.5929 18.6781 58.6827 18.2347 58.6827 17.7867C58.6827 17.3387 58.5929 16.8953 58.4186 16.4826C58.2442 16.0699 57.9889 15.6964 57.6677 15.3841C57.3488 15.0431 56.9612 14.7737 56.5303 14.5939C56.0995 14.414 55.6353 14.3278 55.1686 14.3409H50.9329V14.3425Z" fill="#5F6368"/>
<path d="M67.0759 17.6918C68.9428 17.6918 70.4164 18.1906 71.4967 19.1884C72.5771 20.1861 73.1168 21.5541 73.1157 23.2923V31.5833H70.6998V29.7164H70.59C69.5441 31.2538 68.1532 32.0225 66.4171 32.0225C64.9351 32.0225 63.6952 31.5833 62.6975 30.7047C62.2187 30.3015 61.8359 29.7966 61.577 29.2266C61.318 28.6567 61.1896 28.0362 61.2009 27.4103C61.2009 26.0183 61.7269 24.9113 62.7791 24.0892C63.8312 23.2672 65.2358 22.8551 66.9928 22.853C68.4925 22.853 69.7277 23.1276 70.6982 23.6766V23.0993C70.7011 22.6727 70.609 22.2507 70.4285 21.864C70.2481 21.4774 69.9839 21.1357 69.655 20.8638C68.9871 20.2612 68.1166 19.9324 67.2171 19.943C65.8063 19.943 64.6898 20.538 63.8678 21.7282L61.6433 20.3273C62.8669 18.5703 64.6778 17.6918 67.0759 17.6918ZM63.8082 27.4652C63.8065 27.7867 63.8816 28.1039 64.0273 28.3904C64.1731 28.6769 64.3851 28.9245 64.6459 29.1124C65.2045 29.5518 65.8979 29.7846 66.6084 29.7713C67.6743 29.7695 68.6959 29.3453 69.4495 28.5916C70.2862 27.8041 70.7045 26.8801 70.7045 25.8196C69.917 25.1921 68.8188 24.8783 67.4101 24.8783C66.3841 24.8783 65.5286 25.1257 64.8436 25.6203C64.1517 26.1224 63.8082 26.7326 63.8082 27.4652Z" fill="#5F6368"/>
<path d="M86.9833 18.1311L78.5496 37.5133H75.9423L79.072 30.7315L73.5264 18.1311H76.2717L80.2799 27.7947H80.3348L84.2332 18.1311H86.9833Z" fill="#5F6368"/>
<path d="M40.7274 21.9056C40.7283 21.1359 40.6632 20.3675 40.5328 19.6089H29.8809V23.9591H35.9818C35.857 24.6539 35.5927 25.3162 35.205 25.9061C34.8173 26.496 34.3142 27.0013 33.7259 27.3916V30.2154H37.367C39.499 28.2497 40.7274 25.3428 40.7274 21.9056Z" fill="#4285F4"/>
<path d="M29.88 32.9435C32.9281 32.9435 35.4946 31.9426 37.3662 30.2169L33.7251 27.3931C32.7116 28.0803 31.4064 28.4725 29.88 28.4725C26.9338 28.4725 24.4332 26.4864 23.539 23.8101H19.7881V26.7201C20.7282 28.5909 22.1698 30.1635 23.9518 31.2624C25.7339 32.3614 27.7863 32.9434 29.88 32.9435Z" fill="#34A853"/>
<path d="M23.5396 23.8101C23.0669 22.4077 23.0669 20.889 23.5396 19.4866V16.5765H19.7887C18.9978 18.1503 18.5859 19.8871 18.5859 21.6484C18.5859 23.4096 18.9978 25.1465 19.7887 26.7202L23.5396 23.8101Z" fill="#FBBC04"/>
<path d="M29.88 14.8242C31.4908 14.7978 33.0473 15.4065 34.2129 16.5184L37.4368 13.2946C35.3925 11.3745 32.6844 10.3204 29.88 10.3532C27.7863 10.3533 25.7339 10.9353 23.9518 12.0342C22.1698 13.1331 20.7282 14.7058 19.7881 16.5765L23.539 19.4866C24.4332 16.8102 26.9338 14.8242 29.88 14.8242Z" fill="#EA4335"/>
<rect x="246.98" y="0.932861" width="141.632" height="44" rx="3.5" fill="white" stroke="#CED2D2"/>
<path d="M304.721 20.0985C304.614 20.1595 304.508 20.1747 304.386 20.1595C304.264 20.129 304.173 20.068 304.096 19.9766C303.411 18.9861 302.252 18.4071 301.049 18.4375C298.732 18.4375 297.3 20.2814 297.3 22.9024C297.3 25.5233 298.748 27.3977 301.079 27.3977C301.689 27.4129 302.283 27.2757 302.816 26.9862C303.35 26.7119 303.807 26.3005 304.127 25.7824C304.188 25.691 304.294 25.6148 304.401 25.5995C304.508 25.5691 304.63 25.5843 304.736 25.6453L305.833 26.2853C305.894 26.3157 305.94 26.3615 305.986 26.4072C306.032 26.4529 306.062 26.5138 306.077 26.59C306.093 26.651 306.093 26.7272 306.077 26.7881C306.062 26.8491 306.032 26.91 306.001 26.971C304.904 28.6167 303.045 29.5767 301.064 29.531C297.361 29.531 294.847 26.8338 294.847 22.9176C294.847 19.0013 297.361 16.3346 301.018 16.3346C302.953 16.2889 304.797 17.2032 305.925 18.7728C305.971 18.8185 305.986 18.8794 306.001 18.9556C306.016 19.0166 306.016 19.0775 306.001 19.1537C305.986 19.2147 305.971 19.2756 305.925 19.3366C305.894 19.3975 305.849 19.4433 305.788 19.4737L304.721 20.0985Z" fill="#00D54B"/>
<path d="M312.844 28.8301V28.2968C312.265 29.0434 311.457 29.5158 310.147 29.5158C308.227 29.5158 306.886 28.4644 306.886 26.6205C306.886 24.3196 308.943 23.9234 310.208 23.7405C311.564 23.5424 312.722 23.451 312.722 22.5672C312.722 21.7748 311.808 21.5767 311.046 21.5767C310.162 21.5919 309.293 21.8052 308.516 22.2167C308.455 22.2472 308.41 22.2624 308.349 22.2776C308.288 22.2776 308.227 22.2776 308.166 22.2624C308.105 22.2471 308.059 22.2167 308.013 22.171C307.968 22.1252 307.922 22.0795 307.907 22.0186L307.511 21.1957C307.465 21.089 307.45 20.9671 307.48 20.8452C307.511 20.7386 307.587 20.6319 307.693 20.5709C308.791 19.9919 310.01 19.6719 311.259 19.6719C313.469 19.6719 315.038 20.5862 315.038 22.7805V28.8453C315.038 29.1044 314.84 29.3025 314.581 29.3025C314.581 29.3025 314.581 29.3025 314.566 29.3025H313.347C313.286 29.3025 313.225 29.3025 313.164 29.272C313.103 29.2415 313.057 29.2111 313.012 29.1806C312.966 29.1349 312.935 29.0891 312.905 29.0282C312.859 28.952 312.844 28.8911 312.844 28.8301ZM312.722 24.6396C312.295 24.9596 311.503 25.0662 310.665 25.2186C309.827 25.371 309.126 25.5996 309.126 26.4986C309.126 27.3367 309.735 27.7329 310.604 27.7329C311.686 27.7329 312.707 27.1234 312.707 25.7215V24.6396H312.722Z" fill="#00D54B"/>
<path d="M317.004 26.8948C317.172 26.6967 317.446 26.6815 317.644 26.8339C318.421 27.4129 319.366 27.7329 320.341 27.7025C321.347 27.7025 322.078 27.3825 322.078 26.5901C322.078 25.8739 321.393 25.7367 319.762 25.4472C318.025 25.1577 316.349 24.5786 316.349 22.5824C316.349 20.51 318.132 19.6414 320.174 19.6414C321.454 19.6262 322.688 20.0376 323.709 20.7995C323.816 20.8757 323.877 20.9976 323.877 21.1195C323.877 21.1805 323.877 21.2414 323.861 21.3024C323.846 21.3633 323.816 21.4243 323.77 21.47L323.191 22.1557C323.115 22.2472 323.008 22.3081 322.886 22.3233C322.764 22.3386 322.642 22.3081 322.551 22.2319C321.835 21.7138 320.966 21.4395 320.082 21.4395C319.229 21.4395 318.482 21.6833 318.482 22.3691C318.482 23.1157 319.534 23.2681 320.585 23.4357C322.84 23.8319 324.258 24.4719 324.258 26.331C324.258 28.2968 322.688 29.5006 320.189 29.5006C318.833 29.5463 317.492 29.1044 316.41 28.2663C316.318 28.1901 316.257 28.0682 316.242 27.9463C316.242 27.8853 316.242 27.8244 316.257 27.7634C316.273 27.7025 316.303 27.6415 316.349 27.5958L317.004 26.8948Z" fill="#00D54B"/>
<path d="M325.645 28.8301V17.0204C325.645 16.7613 325.843 16.5632 326.102 16.5632H327.443C327.702 16.5632 327.9 16.7766 327.9 17.0204V21.0585C328.57 20.1595 329.652 19.6414 330.78 19.6718C332.761 19.6718 333.919 21.0738 333.919 23.1005V28.8453C333.919 29.1044 333.721 29.3025 333.462 29.3025H332.121C331.862 29.3025 331.664 29.1044 331.664 28.8605C331.664 28.8605 331.664 28.8605 331.664 28.8453V23.6186C331.664 22.6128 331.344 21.7138 330.064 21.7138C328.845 21.7138 327.915 22.5671 327.915 23.9995V28.8605C327.915 28.9825 327.869 29.1044 327.778 29.1805C327.686 29.272 327.58 29.3177 327.458 29.3177H326.117C326.056 29.3177 325.995 29.3025 325.934 29.2872C325.827 29.2415 325.736 29.1501 325.69 29.0282C325.66 28.952 325.645 28.891 325.645 28.8301Z" fill="#00D54B"/>
<path d="M348.654 28.9825L347.694 26.1329H342.817L341.857 28.9825C341.827 29.0739 341.766 29.1501 341.69 29.2111C341.614 29.272 341.522 29.3025 341.415 29.3025H339.846C339.694 29.3025 339.556 29.2263 339.465 29.1044C339.419 29.0434 339.389 28.9673 339.389 28.9063C339.374 28.8301 339.389 28.7539 339.419 28.693L343.808 16.8833C343.884 16.7004 344.052 16.5938 344.25 16.5938H346.398C346.49 16.5938 346.581 16.6242 346.673 16.6699C346.749 16.7309 346.81 16.8071 346.84 16.8985L351.214 28.7082C351.244 28.7844 351.244 28.8606 351.244 28.9215C351.229 28.9977 351.214 29.0739 351.168 29.1349C351.122 29.1958 351.061 29.2415 351 29.2873C350.939 29.3177 350.863 29.333 350.787 29.333H349.126C348.882 29.3025 348.715 29.1806 348.654 28.9825ZM345.286 18.6204L343.412 24.152H347.084L345.286 18.6204Z" fill="#00D54B"/>
<path d="M354.551 20.3424V21.0738C355.222 20.1443 356.304 19.6262 357.446 19.6567C360.022 19.6567 361.683 21.79 361.683 24.5634C361.683 27.3368 360.022 29.5006 357.446 29.5006C356.304 29.5463 355.222 28.9978 354.551 28.0682V31.9083C354.551 32.1673 354.353 32.3654 354.109 32.3654C354.109 32.3654 354.109 32.3654 354.094 32.3654H352.753C352.494 32.3654 352.296 32.1673 352.296 31.9083C352.296 31.9083 352.296 31.9083 352.296 31.893V20.2814C352.296 20.0224 352.494 19.8243 352.753 19.8243H354.094C354.155 19.8243 354.216 19.8395 354.277 19.8548C354.338 19.8852 354.384 19.9157 354.429 19.9614C354.475 20.0071 354.505 20.0529 354.536 20.1138C354.536 20.2205 354.551 20.2814 354.551 20.3424ZM356.974 27.5349C358.544 27.5349 359.29 26.1939 359.29 24.5786C359.29 22.9634 358.528 21.6529 356.974 21.6529C355.42 21.6529 354.551 22.9481 354.551 24.5786C354.551 26.1939 355.374 27.5349 356.974 27.5349Z" fill="#00D54B"/>
<path d="M365.339 20.3424V21.0738C366.01 20.1443 367.092 19.6262 368.235 19.6567C370.81 19.6567 372.471 21.79 372.471 24.5634C372.471 27.3368 370.81 29.5006 368.235 29.5006C367.092 29.5463 366.01 28.9978 365.339 28.0682V31.9083C365.339 32.1673 365.141 32.3654 364.897 32.3654C364.897 32.3654 364.897 32.3654 364.882 32.3654H363.541C363.282 32.3654 363.084 32.1521 363.084 31.9083V20.2967C363.084 20.0529 363.297 19.8395 363.541 19.8395H364.882C364.943 19.8395 365.004 19.8548 365.065 19.87C365.126 19.9005 365.172 19.931 365.217 19.9767C365.263 20.0224 365.294 20.0681 365.324 20.1291C365.339 20.2205 365.354 20.2814 365.339 20.3424ZM367.777 27.5349C369.347 27.5349 370.094 26.1939 370.094 24.5634C370.094 22.9329 369.332 21.6376 367.777 21.6376C366.223 21.6376 365.354 22.9481 365.354 24.5634C365.339 26.1939 366.177 27.5349 367.777 27.5349Z" fill="#00D54B"/>
<path d="M268.851 10.4984H282.123C285.293 10.4984 287.853 13.0584 287.853 16.228V29.6377C287.853 32.8073 285.293 35.3673 282.123 35.3673H268.851C265.681 35.3673 263.121 32.8073 263.121 29.6377V16.228C263.121 13.0584 265.696 10.4984 268.851 10.4984Z" fill="#00D54B"/>
<path d="M279.517 19.748C278.572 18.9556 277.369 18.5137 276.134 18.5137C275.113 18.5137 274.092 18.8489 274.092 19.7937C274.092 20.647 275.007 20.9823 276.119 21.3937L276.454 21.5156C278.664 22.2623 280.492 23.1766 280.492 25.3404C280.492 27.7024 278.664 29.3024 275.677 29.4853L275.403 30.75C275.357 30.9786 275.144 31.1462 274.915 31.1462H273.026C272.873 31.1462 272.721 31.07 272.629 30.9481C272.538 30.8262 272.492 30.6738 272.523 30.5215L272.812 29.1805C271.685 28.891 270.648 28.3271 269.795 27.5348C269.597 27.3367 269.582 27.0166 269.78 26.8186L269.795 26.8033L270.831 25.7823C271.029 25.5842 271.349 25.5842 271.547 25.7823C272.508 26.6966 273.772 27.1995 275.098 27.169C276.454 27.169 277.384 26.59 277.384 25.6757C277.384 24.8528 276.622 24.5785 275.189 24.0452L274.717 23.8623C272.873 23.2071 271.121 22.2623 271.121 20.0832C271.121 17.5537 273.239 16.3194 275.723 16.1975L275.982 14.9174C276.028 14.6889 276.241 14.5212 276.485 14.5212H278.359C278.633 14.5212 278.862 14.7498 278.862 15.0241C278.862 15.0546 278.862 15.1003 278.847 15.1308L278.557 16.5632C279.517 16.8679 280.401 17.3708 281.163 18.0261C281.27 18.1175 281.33 18.2394 281.33 18.3918C281.33 18.5289 281.285 18.6661 281.178 18.7575L280.203 19.7327C280.02 19.9156 279.715 19.9156 279.517 19.748Z" fill="white"/>
<rect x="402.799" y="0.932861" width="134.089" height="44" rx="3.5" fill="white" stroke="#CED2D2"/>
<path fill-rule="evenodd" clip-rule="evenodd" d="M459.435 31.1131C455.328 34.1436 449.375 35.7551 444.249 35.7551C437.064 35.7551 430.593 33.0982 425.697 28.6778C425.313 28.3305 425.656 27.8566 426.118 28.1252C431.4 31.1991 437.933 33.0512 444.679 33.0512C449.231 33.0512 454.234 32.1061 458.838 30.1536C459.532 29.8597 460.115 30.6112 459.435 31.1131Z" fill="#F79C34"/>
<path fill-rule="evenodd" clip-rule="evenodd" d="M461.144 29.1616C460.618 28.4897 457.673 28.8424 456.349 29.0015C455.948 29.0504 455.886 28.6995 456.247 28.4454C458.598 26.795 462.449 27.2706 462.897 27.8241C463.348 28.3812 462.778 32.2436 460.576 34.0858C460.237 34.3688 459.915 34.2178 460.065 33.8443C460.561 32.6063 461.671 29.8354 461.144 29.1616Z" fill="#F79C34"/>
<path fill-rule="evenodd" clip-rule="evenodd" d="M516.168 30.8302C516.168 30.5462 516.168 30.2894 516.168 30.0054C516.168 29.7703 516.283 29.6093 516.528 29.6229C516.984 29.688 517.631 29.7531 518.09 29.6582C518.689 29.5334 519.12 29.1092 519.374 28.5268C519.732 27.7075 519.969 27.0455 520.119 26.6123L515.568 15.3388C515.491 15.148 515.47 14.7926 515.851 14.7926H517.443C517.746 14.7926 517.87 14.9843 517.938 15.1733L521.237 24.3298L524.386 15.1733C524.45 14.9852 524.579 14.7926 524.879 14.7926H526.38C526.759 14.7926 526.738 15.1471 526.663 15.3388L522.149 26.9632C521.565 28.5115 520.786 30.9758 519.035 31.4035C518.156 31.6332 517.047 31.55 516.396 31.2769C516.23 31.1955 516.168 30.9758 516.168 30.8302ZM497.505 16.3228C499.994 16.3228 500.672 18.2807 500.672 20.5216C500.686 22.0319 500.408 23.3793 499.626 24.1507C499.041 24.7286 498.387 24.886 497.402 24.886C496.525 24.886 495.372 24.4293 494.512 23.7926V17.3835C495.408 16.6953 496.552 16.3228 497.505 16.3228ZM494.131 31.2317H492.628C492.418 31.2317 492.245 31.0608 492.245 30.8501C492.245 25.6311 492.245 20.4122 492.245 15.1932C492.245 14.9834 492.417 14.8116 492.628 14.8116H493.777C494.02 14.8116 494.185 14.9861 494.215 15.1932L494.336 16.0135C495.413 15.0576 496.8 14.4444 498.123 14.4444C501.823 14.4444 503.04 17.4939 503.04 20.6645C503.04 24.0567 501.178 26.7833 498.03 26.7833C496.705 26.7833 495.466 26.294 494.512 25.4448V30.851C494.511 31.0608 494.34 31.2317 494.131 31.2317ZM514.045 26.115C514.045 26.3248 513.873 26.4975 513.662 26.4975H512.54C512.298 26.4975 512.133 26.3221 512.103 26.115L511.99 25.3517C511.474 25.7876 510.841 26.171 510.156 26.4378C508.836 26.9497 507.315 27.0347 506.026 26.2434C505.094 25.6709 504.599 24.5523 504.599 23.3983C504.599 22.5057 504.874 21.6204 505.485 20.9774C506.299 20.0993 507.478 19.6679 508.903 19.6679C509.763 19.6679 510.995 19.7692 511.891 20.0622V18.5266C511.891 16.9639 511.233 16.2875 509.498 16.2875C508.172 16.2875 507.158 16.4883 505.747 16.9269C505.521 16.9341 505.389 16.7623 505.389 16.5525V15.6771C505.389 15.4673 505.568 15.2638 505.762 15.2014C506.77 14.7628 508.198 14.4888 509.716 14.4381C511.695 14.4381 514.046 14.884 514.046 17.9271L514.045 26.115ZM511.889 23.8722V21.5535C511.136 21.3473 509.89 21.2623 509.408 21.2623C508.646 21.2623 507.813 21.4422 507.377 21.9107C507.052 22.2543 506.905 22.7481 506.905 23.2256C506.905 23.8423 507.118 24.4618 507.616 24.7675C508.196 25.1609 509.094 25.1129 509.938 24.8733C510.75 24.6427 511.51 24.2348 511.889 23.8722ZM424.239 26.7751C424.094 26.9054 423.885 26.9135 423.722 26.8267C422.995 26.2226 422.865 25.9431 422.468 25.3689C421.267 26.5924 420.417 26.9587 418.862 26.9587C417.02 26.9578 415.588 25.821 415.588 23.5484C415.588 21.7723 416.549 20.565 417.921 19.9736C419.108 19.4518 420.765 19.3577 422.033 19.2157V18.9318C422.033 18.41 422.075 17.795 421.768 17.3456C421.501 16.9422 420.99 16.7767 420.54 16.7767C419.705 16.7767 418.963 17.2045 418.782 18.0898C418.744 18.287 418.6 18.4823 418.401 18.4923L416.282 18.2626C416.102 18.2219 415.904 18.0781 415.955 17.8059C416.435 15.2692 418.701 14.4788 420.76 14.4571H420.922C421.976 14.4707 423.322 14.7592 424.141 15.5459C425.205 16.5407 425.102 17.8665 425.102 19.3107V22.7183C425.102 23.7438 425.528 24.1932 425.928 24.7449C426.067 24.9447 426.1 25.1808 425.921 25.3273C425.474 25.7017 424.68 26.3908 424.243 26.7796L424.239 26.7751ZM422.033 21.4413C422.033 22.2932 422.054 23.004 421.623 23.7619C421.277 24.3768 420.725 24.7557 420.11 24.7557C419.271 24.7557 418.78 24.1164 418.78 23.1695C418.78 21.3057 420.451 20.9674 422.034 20.9674L422.033 21.4413ZM452.915 26.7751C452.77 26.9054 452.562 26.9135 452.398 26.8267C451.672 26.2226 451.542 25.9431 451.144 25.3689C449.943 26.5924 449.093 26.9587 447.537 26.9587C445.696 26.9587 444.264 25.822 444.264 23.5493C444.264 21.7732 445.226 20.5659 446.597 19.9736C447.784 19.4527 449.441 19.3577 450.71 19.2157V18.9318C450.71 18.41 450.75 17.795 450.444 17.3456C450.178 16.9422 449.667 16.7767 449.217 16.7767C448.382 16.7767 447.641 17.2045 447.459 18.0898C447.421 18.287 447.277 18.4823 447.08 18.4923L444.959 18.2626C444.78 18.2219 444.582 18.0781 444.633 17.805C445.114 15.2683 447.379 14.4779 449.437 14.4562H449.6C450.654 14.4698 451.999 14.7582 452.82 15.545C453.884 16.5398 453.781 17.8656 453.781 19.3098V22.7173C453.781 23.7429 454.207 24.1923 454.607 24.744C454.747 24.9438 454.777 25.1799 454.599 25.3264C454.153 25.7008 453.359 26.3899 452.923 26.7787L452.915 26.7751ZM450.71 21.4413C450.71 22.2932 450.73 23.004 450.3 23.7619C449.952 24.3768 449.399 24.7557 448.786 24.7557C447.948 24.7557 447.456 24.1164 447.456 23.1695C447.456 21.3057 449.127 20.9674 450.71 20.9674V21.4413ZM479.856 26.8023H477.676C477.457 26.7887 477.284 26.6151 477.284 26.3998L477.28 15.1688C477.299 14.9626 477.481 14.8017 477.702 14.8017H479.73C479.922 14.8116 480.079 14.9418 480.119 15.1155V16.8328H480.161C480.774 15.2963 481.63 14.5647 483.141 14.5647C484.122 14.5647 485.082 14.9192 485.693 15.8878C486.266 16.7858 486.266 18.2969 486.266 19.3839V26.4496C486.242 26.6494 486.062 26.8032 485.846 26.8032H483.653C483.451 26.7905 483.288 26.6413 483.263 26.4496V20.3543C483.263 19.1262 483.406 17.3293 481.895 17.3293C481.364 17.3293 480.874 17.6838 480.63 18.2273C480.322 18.9128 480.282 19.5983 480.282 20.3543V26.3998C480.278 26.6223 480.089 26.8023 479.856 26.8023ZM470.662 16.8563C469.05 16.8563 468.948 19.053 468.948 20.423C468.948 21.7931 468.928 24.7232 470.643 24.7232C472.338 24.7232 472.42 22.361 472.42 20.9195C472.42 19.9754 472.379 18.8404 472.093 17.9424C471.848 17.1629 471.357 16.8563 470.662 16.8563ZM470.643 14.5647C473.89 14.5647 475.645 17.3537 475.645 20.8969C475.645 24.3216 473.705 27.0392 470.643 27.0392C467.457 27.0392 465.722 24.2511 465.722 20.7793C465.722 17.2814 467.477 14.5647 470.643 14.5647ZM430.213 26.8023H428.026C427.818 26.7887 427.651 26.6322 427.634 26.4333L427.636 15.205C427.636 14.9807 427.825 14.8017 428.058 14.8017H430.095C430.308 14.8125 430.479 14.9735 430.492 15.1788V16.6447H430.533C431.064 15.2276 432.064 14.5656 433.412 14.5656C434.781 14.5656 435.638 15.2276 436.251 16.6447C436.782 15.2276 437.987 14.5656 439.273 14.5656C440.191 14.5656 441.192 14.9436 441.804 15.7946C442.498 16.7397 442.356 18.1097 442.356 19.3143L442.354 26.3989C442.354 26.6223 442.166 26.8023 441.932 26.8023H439.747C439.527 26.7887 439.354 26.6151 439.354 26.3998V20.4475C439.354 19.9754 439.395 18.7943 439.292 18.3458C439.129 17.5888 438.64 17.3763 438.007 17.3763C437.476 17.3763 436.924 17.7308 436.7 18.2978C436.475 18.8658 436.496 19.8099 436.496 20.4484V26.3998C436.496 26.6232 436.307 26.8032 436.074 26.8032H433.889C433.669 26.7896 433.496 26.616 433.496 26.4007L433.494 20.4484C433.494 19.1958 433.698 17.3546 432.146 17.3546C430.574 17.3546 430.635 19.1488 430.635 20.4484L430.634 26.3998C430.635 26.6223 430.446 26.8023 430.213 26.8023ZM456.441 16.7822V15.1779C456.442 14.9337 456.627 14.7709 456.848 14.7718L464.038 14.7709C464.268 14.7709 464.453 14.9382 464.453 15.1761V16.5516C464.45 16.7822 464.256 17.0833 463.911 17.5617L460.186 22.8792C461.569 22.8476 463.031 23.0547 464.288 23.7601C464.571 23.9192 464.647 24.1553 464.669 24.3859V26.0978C464.669 26.3347 464.411 26.6069 464.139 26.4649C461.927 25.3056 458.99 25.179 456.543 26.4794C456.293 26.6114 456.032 26.3429 456.032 26.1068V24.4799C456.032 24.2204 456.037 23.7745 456.3 23.3775L460.614 17.1864H456.857C456.627 17.1864 456.442 17.0227 456.441 16.7822Z" fill="#333E47"/>
<rect x="551.074" y="0.932861" width="85.2275" height="44" rx="3.5" fill="white" stroke="#CED2D2"/>
<path d="M575.927 14.4011C575.271 15.1795 574.222 15.7917 573.172 15.7043C573.041 14.6548 573.557 13.5353 574.16 12.8531C574.816 12.0572 575.962 11.4887 576.898 11.4449C577.003 12.5295 576.574 13.6052 575.927 14.4011ZM576.88 15.9054C575.359 15.818 574.055 16.7713 573.338 16.7713C572.604 16.7713 571.501 15.9492 570.295 15.9754C568.729 16.0017 567.277 16.885 566.481 18.2931C564.837 21.1181 566.053 25.29 567.644 27.5902C568.423 28.7272 569.35 29.9779 570.574 29.9342C571.738 29.8904 572.192 29.182 573.592 29.182C575 29.182 575.411 29.9341 576.635 29.9167C577.904 29.8904 578.7 28.7797 579.478 27.6427C580.361 26.3483 580.729 25.0976 580.746 25.0276C580.72 25.0014 578.297 24.0743 578.271 21.2755C578.245 18.9316 580.186 17.8208 580.274 17.7509C579.181 16.1241 577.475 15.9492 576.88 15.9054ZM585.661 12.7394V29.7855H588.311V23.9606H591.976C595.326 23.9606 597.67 21.6604 597.67 18.3369C597.67 15.0133 595.361 12.7394 592.064 12.7394H585.661ZM588.311 14.9696H591.364C593.664 14.9696 594.976 16.1941 594.976 18.3456C594.976 20.4971 593.664 21.7391 591.355 21.7391H588.311V14.9696ZM602.498 29.9167C604.159 29.9167 605.699 29.077 606.398 27.7389H606.451V29.7855H608.9V21.3018C608.9 18.8441 606.932 17.2523 603.906 17.2523C601.098 17.2523 599.017 18.8616 598.938 21.0656H601.326C601.527 20.0161 602.498 19.3252 603.827 19.3252C605.445 19.3252 606.355 20.0773 606.355 21.4679V22.4125L603.049 22.6137C599.979 22.7974 598.317 24.0568 598.317 26.2433C598.326 28.4473 600.04 29.9167 602.498 29.9167ZM603.215 27.8963C601.807 27.8963 600.906 27.2141 600.906 26.1821C600.906 25.1063 601.772 24.4853 603.425 24.3891L606.363 24.2055V25.1675C606.363 26.7593 605.008 27.8963 603.215 27.8963ZM612.179 34.4209C614.76 34.4209 615.975 33.4326 617.034 30.4502L621.678 17.4185H618.984L615.87 27.4852H615.818L612.704 17.4185H609.94L614.418 29.8292L614.174 30.5814C613.771 31.8583 613.115 32.3568 611.943 32.3568C611.733 32.3568 611.331 32.3306 611.165 32.3131V34.3597C611.322 34.3946 611.978 34.4209 612.179 34.4209Z" fill="black"/>
<rect x="119.26" y="0.932861" width="113.535" height="44" rx="3.5" fill="white" stroke="#CED2D2"/>
<path d="M176.972 30.1954C176.02 30.1954 175.125 30.0204 174.289 29.6704C173.453 29.3106 172.719 28.8197 172.087 28.1974C171.455 27.5752 170.959 26.8509 170.599 26.0245C170.249 25.1981 170.074 24.3134 170.074 23.3704C170.074 22.4273 170.249 21.5426 170.599 20.7162C170.959 19.8898 171.455 19.1655 172.087 18.5433C172.719 17.9211 173.453 17.4349 174.289 17.0849C175.125 16.7252 176.02 16.5454 176.972 16.5454C177.867 16.5454 178.708 16.7009 179.495 17.012C180.292 17.3231 180.997 17.7606 181.61 18.3245L180.997 20.862C180.599 20.2009 180.049 19.6613 179.349 19.2433C178.659 18.8155 177.881 18.6016 177.016 18.6016C176.141 18.6016 175.349 18.8155 174.639 19.2433C173.939 19.6711 173.38 20.2447 172.962 20.9641C172.554 21.6836 172.349 22.4856 172.349 23.3704C172.349 24.2454 172.554 25.0474 172.962 25.7766C173.38 26.4961 173.939 27.0697 174.639 27.4974C175.349 27.9252 176.141 28.1391 177.016 28.1391C177.881 28.1391 178.659 27.9252 179.349 27.4974C180.049 27.0697 180.599 26.5301 180.997 25.8787L181.61 28.4162C180.997 28.9704 180.292 29.4079 179.495 29.7287C178.708 30.0398 177.867 30.1954 176.972 30.1954ZM187.159 30.1079C186.362 30.1079 185.633 29.9037 184.972 29.4954C184.311 29.087 183.781 28.5377 183.382 27.8474C182.993 27.1572 182.799 26.394 182.799 25.5579C182.799 24.7218 182.993 23.9586 183.382 23.2683C183.781 22.578 184.311 22.0287 184.972 21.6204C185.633 21.212 186.362 21.0079 187.159 21.0079C187.743 21.0079 188.282 21.1148 188.778 21.3287C189.284 21.5329 189.716 21.8245 190.076 22.2037V21.1829H191.899V29.9329H190.076V28.912C189.716 29.2815 189.284 29.5731 188.778 29.787C188.282 30.0009 187.743 30.1079 187.159 30.1079ZM187.422 28.2704C187.908 28.2704 188.35 28.1488 188.749 27.9058C189.157 27.6627 189.478 27.337 189.711 26.9287C189.954 26.5204 190.076 26.0634 190.076 25.5579C190.076 25.062 189.954 24.6099 189.711 24.2016C189.478 23.7836 189.162 23.453 188.763 23.2099C188.365 22.9669 187.918 22.8454 187.422 22.8454C186.936 22.8454 186.488 22.9669 186.08 23.2099C185.681 23.453 185.361 23.7787 185.118 24.187C184.884 24.5954 184.768 25.0523 184.768 25.5579C184.768 26.0537 184.884 26.5106 185.118 26.9287C185.361 27.337 185.681 27.6627 186.08 27.9058C186.479 28.1488 186.926 28.2704 187.422 28.2704ZM194.254 29.9329V21.1829H196.121V22.7287C196.432 22.2231 196.831 21.8245 197.317 21.5329C197.803 21.2412 198.382 21.0954 199.052 21.0954L199.519 23.0058C199.334 22.9474 199.125 22.9183 198.892 22.9183C198.114 22.9183 197.487 23.1662 197.011 23.662C196.544 24.1579 196.311 24.8676 196.311 25.7912V29.9329H194.254ZM204.462 30.1079C203.655 30.1079 202.921 29.9037 202.26 29.4954C201.599 29.087 201.069 28.5377 200.67 27.8474C200.281 27.1572 200.087 26.394 200.087 25.5579C200.087 24.7218 200.281 23.9586 200.67 23.2683C201.069 22.578 201.599 22.0287 202.26 21.6204C202.921 21.212 203.655 21.0079 204.462 21.0079C204.977 21.0079 205.458 21.0954 205.906 21.2704C206.363 21.4356 206.771 21.669 207.131 21.9704V15.9329H209.187V29.9329H207.364V28.9266C207.004 29.2961 206.572 29.5877 206.066 29.8016C205.57 30.0058 205.036 30.1079 204.462 30.1079ZM204.71 28.2704C205.196 28.2704 205.638 28.1488 206.037 27.9058C206.445 27.6627 206.766 27.337 206.999 26.9287C207.242 26.5204 207.364 26.0634 207.364 25.5579C207.364 25.062 207.242 24.6099 206.999 24.2016C206.766 23.7836 206.45 23.453 206.051 23.2099C205.653 22.9669 205.206 22.8454 204.71 22.8454C204.224 22.8454 203.776 22.9669 203.368 23.2099C202.97 23.453 202.649 23.7787 202.406 24.187C202.172 24.5954 202.056 25.0523 202.056 25.5579C202.056 26.0537 202.172 26.5106 202.406 26.9287C202.649 27.337 202.97 27.6627 203.368 27.9058C203.767 28.1488 204.214 28.2704 204.71 28.2704ZM214.109 30.1662C213.584 30.1662 213.04 30.0787 212.476 29.9037C211.922 29.719 211.47 29.4419 211.12 29.0724L211.645 27.0162C211.927 27.4343 212.301 27.7843 212.768 28.0662C213.234 28.3481 213.72 28.4891 214.226 28.4891C214.644 28.4891 214.95 28.3968 215.145 28.212C215.339 28.0273 215.436 27.8037 215.436 27.5412C215.436 27.2495 215.334 27.0356 215.13 26.8995C214.926 26.7537 214.731 26.6468 214.547 26.5787L213.336 26.1266C213.093 26.0294 212.806 25.8933 212.476 25.7183C212.155 25.5336 211.873 25.2759 211.63 24.9454C211.387 24.6148 211.265 24.1822 211.265 23.6474C211.265 23.1613 211.382 22.7141 211.615 22.3058C211.859 21.8974 212.204 21.5717 212.651 21.3287C213.098 21.0759 213.633 20.9495 214.255 20.9495C214.79 20.9495 215.31 21.0419 215.815 21.2266C216.331 21.4113 216.734 21.6592 217.026 21.9704L216.515 23.9974C216.234 23.5697 215.879 23.2343 215.451 22.9912C215.033 22.7481 214.615 22.6266 214.197 22.6266C213.837 22.6266 213.565 22.7141 213.38 22.8891C213.195 23.0641 213.103 23.2683 213.103 23.5016C213.103 23.6766 213.166 23.8419 213.293 23.9974C213.419 24.1433 213.623 24.2697 213.905 24.3766L215.057 24.8141C215.329 24.9113 215.636 25.0523 215.976 25.237C216.326 25.4218 216.627 25.6843 216.88 26.0245C217.133 26.3648 217.259 26.8266 217.259 27.4099C217.259 28.2266 216.963 28.8926 216.37 29.4079C215.786 29.9134 215.033 30.1662 214.109 30.1662Z" fill="#383E56"/>
<path d="M162.628 27.5447L140.165 32.4394C139.322 32.6338 138.479 32.0828 138.317 31.24L135.173 16.9775C134.978 16.1348 135.529 15.292 136.372 15.1299L158.836 10.2353C159.678 10.0408 160.521 10.5919 160.683 11.4346L163.795 25.7295C163.99 26.5399 163.471 27.3827 162.628 27.5447Z" fill="#383E56"/>
<path d="M138.285 31.24L135.173 16.9775Z" fill="#383E56"/>
<path d="M161.073 13.033L135.545 18.5927L136.18 21.5065L161.707 15.9468L161.073 13.033Z" fill="#ACAFBF"/>
<path opacity="0.15" d="M163.244 26.8316L140.781 31.7262C139.938 31.9207 139.095 31.3696 138.933 30.5268L135.821 16.232C135.756 15.9078 135.789 15.5513 135.919 15.2595C135.368 15.5837 135.043 16.2644 135.173 16.9127L138.285 31.24C138.479 32.0827 139.29 32.6014 140.132 32.4393L162.596 27.5447C163.114 27.4474 163.503 27.0909 163.698 26.6371C163.568 26.7343 163.406 26.7992 163.244 26.8316Z" fill="black"/>
<path opacity="0.15" d="M159.97 19.0521V33.6711C159.97 34.0277 159.84 34.3842 159.613 34.6436C159.354 34.8705 158.997 35.0001 158.641 35.0001H135.626C134.751 35.0001 134.07 34.287 134.07 33.4442V18.8252C134.07 18.4686 134.2 18.1121 134.427 17.8527C134.686 17.6258 135.043 17.4962 135.399 17.4962H158.381C159.257 17.4638 159.97 18.1769 159.97 19.0521Z" fill="black"/>
<path opacity="0.15" d="M159.97 19.0521V33.6711C159.97 34.0277 159.84 34.3842 159.613 34.6436C159.322 35.0001 158.9 35.227 158.414 35.227H135.4C134.524 35.227 133.844 34.5139 133.844 33.6711V19.0521C133.844 18.5659 134.071 18.1445 134.427 17.8527C134.687 17.6258 135.043 17.4962 135.4 17.4962H158.382C159.257 17.4638 159.97 18.1769 159.97 19.0521Z" fill="black"/>
<path d="M158.382 35.2271H135.4C134.524 35.2271 133.844 34.5139 133.844 33.6711V19.0521C133.844 18.1769 134.557 17.4962 135.4 17.4962H158.382C159.257 17.4962 159.938 18.2093 159.938 19.0521V33.6711C159.938 34.5139 159.257 35.2271 158.382 35.2271Z" fill="#383E56"/>
<path d="M141.332 28.2254H136.761C136.437 28.2254 136.178 27.9661 136.178 27.6419V25.0163C136.178 24.6922 136.437 24.4329 136.761 24.4329H141.332C141.656 24.4329 141.915 24.6922 141.915 25.0163V27.6743C141.915 27.9661 141.656 28.2254 141.332 28.2254Z" fill="#E5CF89"/>
<path opacity="0.15" d="M159.16 34.6111H136.145C135.27 34.6111 134.589 33.898 134.589 33.0552V18.4362C134.589 18.0796 134.719 17.7879 134.881 17.5286C134.265 17.7231 133.812 18.3065 133.812 18.9872V33.6062C133.812 34.4814 134.525 35.1622 135.367 35.1622H158.349C158.868 35.1622 159.322 34.9028 159.614 34.5139C159.484 34.5787 159.322 34.6111 159.16 34.6111Z" fill="black"/>
<path d="M156.793 32.4718H151.413C151.283 32.4718 151.153 32.569 151.153 32.7311V33.0229C151.153 33.1525 151.251 33.2822 151.413 33.2822H156.793C156.923 33.2822 157.053 33.1849 157.053 33.0229V32.7311C157.053 32.569 156.923 32.4718 156.793 32.4718Z" fill="#ACAFBF"/>
<path d="M150.116 32.4718H141.98C141.85 32.4718 141.721 32.569 141.721 32.7311V33.0229C141.721 33.1525 141.818 33.2822 141.98 33.2822H150.116C150.246 33.2822 150.375 33.1849 150.375 33.0229V32.7311C150.375 32.569 150.278 32.4718 150.116 32.4718Z" fill="#ACAFBF"/>
</svg>
